<svg width="35" height="30" viewBox="0 0 35 30" fill="none" xmlns="http://www.w3.org/2000/svg">
<path d="M6.72529 9.54551C6.29445 9.36698 6.08892 8.87077 6.29372 8.45178C7.70048 5.57374 10.0016 3.2101 12.8685 1.71708C15.9872 0.0929331 19.5793 -0.398925 23.0245 0.32648C26.4696 1.05189 29.5513 2.94899 31.7372 5.69005C33.923 8.4311 35.0757 11.8439 34.9962 15.339C34.9166 18.834 33.6097 22.1916 31.3013 24.8318C28.9929 27.4721 25.828 29.229 22.3534 29.7992C18.8788 30.3693 15.3126 29.7169 12.2711 27.9545C9.4751 26.3344 7.28387 23.87 6.00955 20.9318C5.824 20.504 6.0517 20.0176 6.49008 19.8587V19.8587C6.92551 19.7008 7.40421 19.9258 7.59126 20.3495C8.72837 22.9254 10.661 25.0855 13.1203 26.5104C15.8227 28.0763 18.9914 28.6561 22.0787 28.1495C25.166 27.6429 27.9781 26.0818 30.0292 23.7359C32.0802 21.39 33.2414 18.4066 33.3121 15.3012C33.3828 12.1958 32.3586 9.16335 30.4164 6.72784C28.4742 4.29234 25.7361 2.60671 22.675 1.96216C19.6139 1.31762 16.4221 1.75465 13.6511 3.19775C11.1293 4.51107 9.10012 6.58255 7.84696 9.1051C7.641 9.51967 7.15295 9.72271 6.72529 9.54551V9.54551Z" fill="white"/>
<path d="M1 15.0366L23.3914 15.0366" stroke="white" stroke-width="2" stroke-linecap="round"/>
<path d="M17.1905 9L23.6667 15.0366L17.1905 21.375" stroke="white" stroke-width="2" stroke-linecap="round"/>
</svg>
