<svg width="34" height="39" viewBox="0 0 34 39" fill="none" xmlns="http://www.w3.org/2000/svg">
<path d="M15.1566 23.7391L17 20.9837L18.8434 23.7391" stroke="black" stroke-linecap="round"/>
<path d="M10.9699 25.0109C10.9699 27.0922 9.34372 28.75 7.37349 28.75C5.40327 28.75 3.77711 27.0922 3.77711 25.0109C3.77711 22.9295 5.40327 21.2717 7.37349 21.2717C9.34372 21.2717 10.9699 22.9295 10.9699 25.0109Z" stroke="black"/>
<path d="M6 30.5978H9.15662C12.1942 30.5978 14.6566 33.0603 14.6566 36.0978V38.5H0.5V36.0978C0.5 33.0603 2.96243 30.5978 6 30.5978Z" stroke="black"/>
<path d="M29.8133 25.0109C29.8133 27.0922 28.1871 28.75 26.2169 28.75C24.2466 28.75 22.6205 27.0922 22.6205 25.0109C22.6205 22.9295 24.2466 21.2717 26.2169 21.2717C28.1871 21.2717 29.8133 22.9295 29.8133 25.0109Z" stroke="black"/>
<path d="M24.8434 30.5978H28C31.0376 30.5978 33.5 33.0603 33.5 36.0978V38.5H19.3434V36.0978C19.3434 33.0603 21.8058 30.5978 24.8434 30.5978Z" stroke="black"/>
<rect x="0.5" y="0.5" width="33" height="18.0761" rx="3.5" stroke="black"/>
<line x1="3.77711" y1="5.43478" x2="22.0301" y2="5.43478" stroke="black" stroke-linecap="round"/>
<line x1="3.77711" y1="9.25" x2="30.2229" y2="9.25" stroke="black" stroke-linecap="round"/>
<line x1="3.77711" y1="13.0652" x2="30.2229" y2="13.0652" stroke="black" stroke-linecap="round"/>
</svg>
