<svg width="31" height="35" viewBox="0 0 31 35" fill="none" xmlns="http://www.w3.org/2000/svg">
<path d="M13.8193 21.3044L15.5 18.8315L17.1807 21.3044" stroke="white" stroke-width="2" stroke-linecap="round"/>
<path d="M9.45783 22.4456C9.45783 24.0119 8.21607 25.25 6.72289 25.25C5.2297 25.25 3.98795 24.0119 3.98795 22.4456C3.98795 20.8794 5.2297 19.6413 6.72289 19.6413C8.21607 19.6413 9.45783 20.8794 9.45783 22.4456Z" stroke="white" stroke-width="2"/>
<path d="M1 33.0109C1 30.2494 3.23858 28.0109 6 28.0109H7.81928C10.5807 28.0109 12.8193 30.2494 12.8193 33.0109V34H1V33.0109Z" stroke="white" stroke-width="2"/>
<path d="M26.6386 22.4456C26.6386 24.0119 25.3968 25.25 23.9036 25.25C22.4105 25.25 21.1687 24.0119 21.1687 22.4456C21.1687 20.8794 22.4105 19.6413 23.9036 19.6413C25.3968 19.6413 26.6386 20.8794 26.6386 22.4456Z" stroke="white" stroke-width="2"/>
<path d="M18.1807 33.0109C18.1807 30.2494 20.4193 28.0109 23.1807 28.0109H25C27.7614 28.0109 30 30.2494 30 33.0109V34H18.1807V33.0109Z" stroke="white" stroke-width="2"/>
<rect x="1" y="1" width="29" height="15.1196" rx="3" stroke="white" stroke-width="2"/>
<line x1="3.98795" y1="4.32605" x2="19.5422" y2="4.32605" stroke="white" stroke-width="2" stroke-linecap="round"/>
<line x1="3.98795" y1="7.75" x2="27.012" y2="7.75" stroke="white" stroke-width="2" stroke-linecap="round"/>
<line x1="3.98795" y1="11.174" x2="27.012" y2="11.174" stroke="white" stroke-width="2" stroke-linecap="round"/>
</svg>
