<svg width="37" height="35" viewBox="0 0 37 35" fill="none" xmlns="http://www.w3.org/2000/svg">
<rect x="5.22778" y="22.5779" width="3.55621" height="2.09091" rx="0.5" stroke="#989898"/>
<rect x="28.0088" y="22.5779" width="3.55621" height="2.09091" rx="0.5" stroke="#989898"/>
<rect x="5.22778" y="26.9935" width="3.55621" height="2.09091" rx="0.5" stroke="#989898"/>
<path d="M22.0384 14.7922C22.0384 16.8388 20.4019 18.487 18.3964 18.487C16.3909 18.487 14.7544 16.8388 14.7544 14.7922C14.7544 12.7456 16.3909 11.0974 18.3964 11.0974C20.4019 11.0974 22.0384 12.7456 22.0384 14.7922Z" stroke="#989898"/>
<path d="M18.3965 13.2468V15.4546H19.8462" stroke="#989898" stroke-linecap="round"/>
<path d="M16.3254 34V27.4935C16.3254 26.9412 16.7732 26.4935 17.3254 26.4935H19.4675C20.0197 26.4935 20.4675 26.9412 20.4675 27.4935V34" stroke="#989898"/>
<path d="M14.2544 33.7793V23.5195C14.2544 22.9672 14.7021 22.5195 15.2544 22.5195H21.7455C22.2978 22.5195 22.7455 22.9672 22.7455 23.5195V33.7793" stroke="#989898" stroke-linecap="round"/>
<path d="M10.9408 11.4805L17.581 4.69377C17.9691 4.29707 18.606 4.29232 19 4.68318L25.8521 11.4805M10.9408 11.4805H10.6283C9.77418 11.4805 9.31318 10.4789 9.86866 9.83014L17.5417 0.868394C17.9352 0.408718 18.6437 0.401208 19.0469 0.852438L27.0553 9.81419C27.6311 10.4585 27.1738 11.4805 26.3097 11.4805H25.8521M10.9408 11.4805V16.7792M25.8521 11.4805V16.7792M25.8521 16.7792H35C35.5523 16.7792 36 17.2269 36 17.7792V18.2078C36 18.7601 35.5523 19.2078 35 19.2078H33.929M25.8521 16.7792V19.2078M25.8521 19.2078H33.929M25.8521 19.2078V31.7922M33.929 19.2078V31.7922H25.8521M25.8521 31.7922V34H10.9408V31.7922M10.9408 16.7792H2C1.44772 16.7792 1 17.2269 1 17.7792V18.2078C1 18.7601 1.44772 19.2078 2 19.2078H3.07101M10.9408 16.7792V19.2078M10.9408 19.2078H3.07101M10.9408 19.2078V31.7922M3.07101 19.2078V31.7922H10.9408" stroke="#989898"/>
<rect x="28.0088" y="26.9935" width="3.55621" height="2.09091" rx="0.5" stroke="#989898"/>
</svg>
