<svg width="405" height="336" viewBox="0 0 405 336" fill="none" xmlns="http://www.w3.org/2000/svg">
<g clip-path="url(#clip0_186_744)">
<path d="M251.633 195.25H103.287C98.2559 195.245 93.4329 193.404 89.8757 190.13C86.3185 186.857 84.3176 182.418 84.3119 177.789V17.4614C84.3176 12.832 86.3185 8.39362 89.8757 5.12011C93.4329 1.84659 98.2559 0.00522942 103.287 0H241.299L270.608 21.4981V177.789C270.602 182.418 268.601 186.857 265.044 190.13C261.487 193.404 256.664 195.245 251.633 195.25Z" fill="#E6E6E6"/>
<path d="M103.286 5.02673C99.704 5.03045 96.2695 6.34172 93.7363 8.67286C91.2032 11.004 89.7783 14.1646 89.7742 17.4614V177.789C89.7783 181.086 91.2032 184.246 93.7363 186.577C96.2695 188.909 99.704 190.22 103.286 190.224H251.633C255.216 190.22 258.65 188.909 261.184 186.577C263.717 184.246 265.142 181.086 265.146 177.789V23.9198L239.388 5.02673H103.286Z" fill="white"/>
<path d="M222.78 51.6457H155.24C154.825 51.6457 154.414 51.5704 154.03 51.4243C153.647 51.2782 153.299 51.064 153.005 50.794C152.712 50.524 152.479 50.2034 152.32 49.8506C152.162 49.4978 152.08 49.1197 152.08 48.7379C152.08 48.356 152.162 47.9779 152.32 47.6251C152.479 47.2723 152.712 46.9518 153.005 46.6817C153.299 46.4117 153.647 46.1975 154.03 46.0514C154.414 45.9053 154.825 45.8301 155.24 45.8301H222.78C223.195 45.8301 223.606 45.9053 223.989 46.0514C224.373 46.1975 224.721 46.4117 225.014 46.6817C225.308 46.9518 225.54 47.2723 225.699 47.6251C225.858 47.9779 225.94 48.356 225.94 48.7379C225.94 49.1197 225.858 49.4978 225.699 49.8506C225.54 50.2034 225.308 50.524 225.014 50.794C224.721 51.064 224.373 51.2782 223.989 51.4243C223.606 51.5704 223.195 51.6457 222.78 51.6457Z" fill="#CCCCCC"/>
<path d="M235.814 61.4596H155.24C154.402 61.4596 153.598 61.1533 153.005 60.608C152.413 60.0626 152.08 59.323 152.08 58.5518C152.08 57.7806 152.413 57.041 153.005 56.4957C153.598 55.9504 154.402 55.644 155.24 55.644H235.814C236.652 55.644 237.456 55.9504 238.048 56.4957C238.641 57.041 238.974 57.7806 238.974 58.5518C238.974 59.323 238.641 60.0626 238.048 60.608C237.456 61.1533 236.652 61.4596 235.814 61.4596Z" fill="#CCCCCC"/>
<path d="M222.78 95.6261H155.24C154.402 95.6261 153.598 95.3198 153.005 94.7745C152.413 94.2291 152.08 93.4895 152.08 92.7183C152.08 91.9471 152.413 91.2075 153.005 90.6622C153.598 90.1169 154.402 89.8105 155.24 89.8105H222.78C223.618 89.8105 224.422 90.1169 225.014 90.6622C225.607 91.2075 225.94 91.9471 225.94 92.7183C225.94 93.4895 225.607 94.2291 225.014 94.7745C224.422 95.3198 223.618 95.6261 222.78 95.6261Z" fill="#CCCCCC"/>
<path d="M235.814 105.44H155.24C154.402 105.44 153.598 105.133 153.005 104.588C152.413 104.043 152.08 103.303 152.08 102.532C152.08 101.761 152.413 101.021 153.005 100.476C153.598 99.9306 154.402 99.6243 155.24 99.6243H235.814C236.652 99.6243 237.456 99.9306 238.048 100.476C238.641 101.021 238.974 101.761 238.974 102.532C238.974 103.303 238.641 104.043 238.048 104.588C237.456 105.133 236.652 105.44 235.814 105.44Z" fill="#CCCCCC"/>
<path d="M222.78 139.606H155.24C154.402 139.606 153.598 139.3 153.005 138.755C152.413 138.209 152.08 137.47 152.08 136.699C152.08 135.927 152.413 135.188 153.005 134.642C153.598 134.097 154.402 133.791 155.24 133.791H222.78C223.618 133.791 224.422 134.097 225.014 134.642C225.607 135.188 225.94 135.927 225.94 136.699C225.94 137.47 225.607 138.209 225.014 138.755C224.422 139.3 223.618 139.606 222.78 139.606Z" fill="#CCCCCC"/>
<path d="M235.814 149.42H155.24C154.402 149.42 153.598 149.114 153.005 148.569C152.413 148.023 152.08 147.284 152.08 146.513C152.08 145.741 152.413 145.002 153.005 144.456C153.598 143.911 154.402 143.605 155.24 143.605H235.814C236.652 143.605 237.456 143.911 238.048 144.456C238.641 145.002 238.974 145.741 238.974 146.513C238.974 147.284 238.641 148.023 238.048 148.569C237.456 149.114 236.652 149.42 235.814 149.42Z" fill="#CCCCCC"/>
<path d="M127.114 63.9223C133.282 63.9223 138.282 59.321 138.282 53.6449C138.282 47.9688 133.282 43.3674 127.114 43.3674C120.946 43.3674 115.946 47.9688 115.946 53.6449C115.946 59.321 120.946 63.9223 127.114 63.9223Z" fill="#5297FF"/>
<path d="M126.008 57.5653C125.756 57.5657 125.512 57.4909 125.311 57.3522L125.298 57.3436L122.674 55.4959C122.428 55.3226 122.268 55.0668 122.228 54.7847C122.187 54.5026 122.27 54.2174 122.458 53.9916C122.646 53.7658 122.924 53.618 123.231 53.5806C123.537 53.5432 123.847 53.6193 124.093 53.7922L125.793 54.9919L129.81 50.1689C129.903 50.0571 130.019 49.9632 130.152 49.8927C130.285 49.8222 130.431 49.7765 130.583 49.758C130.735 49.7396 130.889 49.7488 131.037 49.7852C131.185 49.8216 131.323 49.8845 131.445 49.9702L131.42 50.0023L131.446 49.9705C131.691 50.1438 131.851 50.3996 131.892 50.6817C131.932 50.9638 131.849 51.2491 131.661 51.475L126.936 57.1454C126.827 57.2761 126.686 57.3818 126.526 57.4544C126.365 57.527 126.188 57.5645 126.009 57.564L126.008 57.5653Z" fill="white"/>
<path d="M128.264 107.903C134.432 107.903 139.432 103.301 139.432 97.6251C139.432 91.949 134.432 87.3477 128.264 87.3477C122.096 87.3477 117.096 91.949 117.096 97.6251C117.096 103.301 122.096 107.903 128.264 107.903Z" fill="#CCCCCC"/>
<path d="M127.114 151.883C133.282 151.883 138.282 147.282 138.282 141.606C138.282 135.929 133.282 131.328 127.114 131.328C120.946 131.328 115.946 135.929 115.946 141.606C115.946 147.282 120.946 151.883 127.114 151.883Z" fill="#CCCCCC"/>
<path d="M270.038 22.19H247.079C245.403 22.19 243.795 21.5773 242.61 20.4867C241.425 19.396 240.759 17.9168 240.759 16.3744V0.769731C240.759 0.701412 240.78 0.634471 240.82 0.576594C240.859 0.518717 240.916 0.472244 240.982 0.442502C241.049 0.41276 241.124 0.400953 241.198 0.408438C241.271 0.415923 241.341 0.442394 241.4 0.484817L270.283 21.5416C270.347 21.5885 270.394 21.6526 270.417 21.725C270.44 21.7975 270.438 21.8747 270.411 21.946C270.384 22.0173 270.333 22.0791 270.266 22.1228C270.2 22.1665 270.12 22.19 270.038 22.19Z" fill="#E6E6E6"/>
<path d="M114.623 225.29L26.8532 242.315C24.3167 242.805 21.673 242.348 19.5019 241.046C17.3309 239.743 15.8098 237.702 15.2725 235.369L0.21135 169.614C-0.320305 167.279 0.175867 164.847 1.59101 162.849C3.00616 160.851 5.2247 159.451 7.75992 158.956L95.5295 141.932C98.0659 141.442 100.71 141.899 102.881 143.201C105.052 144.503 106.573 146.545 107.11 148.878L122.171 214.633C122.703 216.967 122.207 219.4 120.792 221.398C119.377 223.396 117.158 224.796 114.623 225.29Z" fill="white"/>
<path d="M114.623 225.29L26.8532 242.315C24.3167 242.805 21.673 242.348 19.5019 241.046C17.3309 239.743 15.8098 237.702 15.2725 235.369L0.21135 169.614C-0.320305 167.279 0.175867 164.847 1.59101 162.849C3.00616 160.851 5.2247 159.451 7.75992 158.956L95.5295 141.932C98.0659 141.442 100.71 141.899 102.881 143.201C105.052 144.503 106.573 146.545 107.11 148.878L122.171 214.633C122.703 216.967 122.207 219.4 120.792 221.398C119.377 223.396 117.158 224.796 114.623 225.29ZM7.99711 159.992C5.76015 160.428 3.80262 161.663 2.55397 163.426C1.30531 165.189 0.867503 167.336 1.33659 169.395L16.3977 235.151C16.8719 237.209 18.214 239.011 20.1296 240.16C22.0453 241.309 24.378 241.712 26.616 241.28L114.386 224.255C116.623 223.819 118.58 222.584 119.829 220.821C121.077 219.058 121.515 216.911 121.046 214.852L105.985 149.096C105.511 147.038 104.169 145.236 102.253 144.087C100.337 142.938 98.0047 142.535 95.7667 142.967L7.99711 159.992Z" fill="#3F3D56"/>
<path d="M90.0761 163.613L45.7799 172.205C45.3923 172.288 44.985 172.232 44.6403 172.049C44.2956 171.866 44.0393 171.57 43.9231 171.219C43.87 171.037 43.8579 170.846 43.8875 170.659C43.9171 170.472 43.9879 170.292 44.0954 170.131C44.2029 169.97 44.345 169.831 44.513 169.722C44.6809 169.613 44.8712 169.537 45.0723 169.498L90.1631 160.751C91.9236 161.664 91.3677 163.362 90.0761 163.613Z" fill="#CCCCCC"/>
<path d="M91.7139 170.763L47.4177 179.355C47.0301 179.438 46.6227 179.382 46.2781 179.199C45.9334 179.016 45.677 178.72 45.5609 178.37C45.5078 178.187 45.4956 177.996 45.5253 177.809C45.5549 177.622 45.6256 177.442 45.7331 177.281C45.8407 177.12 45.9828 176.981 46.1507 176.872C46.3187 176.763 46.509 176.687 46.71 176.648L91.8008 167.901C93.5614 168.814 93.0055 170.513 91.7139 170.763Z" fill="#CCCCCC"/>
<path d="M38.7744 185.284L25.2556 187.906C24.8141 187.991 24.3539 187.912 23.976 187.685C23.5981 187.459 23.3334 187.103 23.2399 186.697L19.8772 172.016C19.7846 171.61 19.871 171.186 20.1173 170.839C20.3636 170.491 20.7498 170.247 21.1911 170.161L34.7099 167.539C35.1514 167.454 35.6115 167.533 35.9893 167.76C36.3672 167.987 36.632 168.342 36.7256 168.748L40.0883 183.429C40.1809 183.835 40.0945 184.259 39.8482 184.607C39.6019 184.954 39.2157 185.198 38.7744 185.284Z" fill="#CCCCCC"/>
<path d="M94.9383 185.428L27.3343 198.542C26.9466 198.624 26.5393 198.569 26.1946 198.386C25.8499 198.203 25.5936 197.906 25.4774 197.556C25.4243 197.373 25.4122 197.183 25.4418 196.995C25.4714 196.808 25.5422 196.629 25.6497 196.468C25.7572 196.306 25.8993 196.167 26.0673 196.058C26.2352 195.949 26.4256 195.873 26.6266 195.834L95.0258 182.566C96.7864 183.479 96.2299 185.178 94.9383 185.428Z" fill="#CCCCCC"/>
<path d="M96.5765 192.581L28.9724 205.694C28.5848 205.777 28.1775 205.721 27.8328 205.538C27.4881 205.355 27.2318 205.058 27.1156 204.708C27.0625 204.526 27.0504 204.335 27.08 204.148C27.1096 203.961 27.1804 203.781 27.2879 203.62C27.3954 203.459 27.5375 203.319 27.7055 203.211C27.8734 203.102 28.0637 203.025 28.2648 202.986L96.664 189.719C98.4246 190.632 97.8681 192.33 96.5765 192.581Z" fill="#CCCCCC"/>
<path d="M98.2137 199.728L30.6096 212.841C30.222 212.924 29.8147 212.869 29.47 212.686C29.1253 212.503 28.869 212.206 28.7528 211.856C28.6997 211.673 28.6876 211.482 28.7172 211.295C28.7468 211.108 28.8176 210.928 28.9251 210.767C29.0326 210.606 29.1747 210.467 29.3427 210.358C29.5106 210.249 29.7009 210.173 29.902 210.134L98.3012 196.866C100.062 197.779 99.5053 199.478 98.2137 199.728Z" fill="#CCCCCC"/>
<path d="M99.8518 206.88L32.2477 219.993C31.8601 220.076 31.4527 220.02 31.1081 219.837C30.7634 219.654 30.507 219.358 30.3909 219.008C30.3378 218.825 30.3257 218.634 30.3553 218.447C30.3849 218.26 30.4556 218.08 30.5632 217.919C30.6707 217.758 30.8128 217.619 30.9807 217.51C31.1487 217.401 31.339 217.325 31.5401 217.286L99.9393 204.018C101.7 204.931 101.143 206.629 99.8518 206.88Z" fill="#CCCCCC"/>
<path d="M101.489 214.028L33.885 227.142C33.4974 227.224 33.0901 227.169 32.7454 226.986C32.4007 226.803 32.1444 226.506 32.0282 226.156C31.9751 225.973 31.963 225.782 31.9926 225.595C32.0222 225.408 32.0929 225.229 32.2005 225.067C32.308 224.906 32.4501 224.767 32.6181 224.658C32.786 224.549 32.9763 224.473 33.1774 224.434L101.577 211.166C103.337 212.079 102.781 213.778 101.489 214.028Z" fill="#CCCCCC"/>
<path d="M113.423 181.292C113.269 181.549 113.138 181.816 113.03 182.091L85.3537 188.412L80.539 183.828L72.0723 189.61L79.7388 198.487C80.3581 199.204 81.2135 199.717 82.1766 199.949C83.1397 200.18 84.1584 200.118 85.0798 199.772L115.111 188.479C116.098 189.148 117.283 189.524 118.508 189.558C119.733 189.591 120.941 189.281 121.969 188.668C122.998 188.055 123.8 187.168 124.268 186.126C124.736 185.083 124.848 183.935 124.589 182.832C124.33 181.73 123.712 180.726 122.818 179.954C121.924 179.183 120.796 178.68 119.584 178.513C118.371 178.346 117.133 178.522 116.032 179.019C114.932 179.515 114.021 180.308 113.423 181.292Z" fill="#A0616A"/>
<path d="M18.954 237.535C19.8168 237.29 20.6107 236.874 21.2798 236.315C21.9489 235.757 22.4768 235.071 22.8265 234.305C23.1761 233.539 23.339 232.711 23.3035 231.881C23.2681 231.05 23.0353 230.237 22.6214 229.499L41.6675 180.783L28.4406 178.626L13.8781 227.19C12.5759 227.912 11.6067 229.049 11.1542 230.384C10.7017 231.72 10.7973 233.162 11.423 234.437C12.0487 235.713 13.1609 236.732 14.5489 237.303C15.9369 237.874 17.5043 237.957 18.954 237.535Z" fill="#A0616A"/>
<path d="M39.2486 189.431L26.1892 184.818C25.8176 184.687 25.4811 184.484 25.2027 184.222C24.9242 183.96 24.7104 183.646 24.5756 183.302C24.4408 182.957 24.3884 182.59 24.4218 182.225C24.4552 181.86 24.5736 181.506 24.7691 181.187L31.6201 170.008C32.3607 168.263 33.8231 166.859 35.6868 166.104C37.5505 165.349 39.6634 165.305 41.5622 165.982C43.4611 166.658 44.991 168 45.8165 169.713C46.642 171.426 46.6958 173.37 45.9661 175.12L42.9442 187.606C42.8575 187.963 42.6882 188.299 42.4477 188.591C42.2072 188.883 41.9011 189.124 41.5504 189.297C41.1997 189.47 40.8126 189.572 40.4154 189.595C40.0182 189.618 39.6202 189.562 39.2486 189.431Z" fill="#5297FF"/>
<path d="M68.7255 328.997L75.7748 328.997L79.1281 303.975L68.7243 303.976L68.7255 328.997Z" fill="#A0616A"/>
<path d="M66.9272 326.879L80.8096 326.879H80.8102C81.972 326.879 83.1224 327.089 84.1958 327.499C85.2692 327.908 86.2445 328.507 87.066 329.263C87.8875 330.019 88.5392 330.917 88.9838 331.905C89.4284 332.892 89.6572 333.951 89.6572 335.02V335.285L66.9276 335.286L66.9272 326.879Z" fill="#2F2E41"/>
<path d="M29.0513 328.997L36.1006 328.997L39.4539 303.975L29.0501 303.976L29.0513 328.997Z" fill="#A0616A"/>
<path d="M27.2531 326.879L41.1355 326.879H41.136C42.2978 326.879 43.4483 327.089 44.5217 327.499C45.595 327.908 46.5703 328.507 47.3919 329.263C48.2134 330.019 48.865 330.917 49.3096 331.905C49.7542 332.892 49.9831 333.951 49.9831 335.02V335.285L27.2535 335.286L27.2531 326.879Z" fill="#2F2E41"/>
<path d="M36.4412 318.927H27.5205C27.1703 318.926 26.8239 318.861 26.502 318.734C26.1801 318.607 25.8896 318.422 25.648 318.189C25.4063 317.955 25.2187 317.679 25.0963 317.378C24.9739 317.076 24.9193 316.754 24.936 316.432L29.1733 232.653L29.4403 232.647L72.5179 231.613L80.9475 315.44C80.9799 315.754 80.9441 316.071 80.8422 316.373C80.7402 316.674 80.5742 316.954 80.3537 317.196C80.1332 317.438 79.8627 317.637 79.5579 317.781C79.253 317.926 78.92 318.014 78.578 318.039L68.5582 318.776C67.9287 318.822 67.3026 318.655 66.7978 318.306C66.293 317.957 65.9442 317.45 65.8171 316.881L53.0005 257.207C52.9655 257.026 52.861 256.862 52.706 256.746C52.551 256.629 52.3558 256.568 52.1558 256.572H52.1523C51.9516 256.568 51.756 256.631 51.6012 256.748C51.4464 256.866 51.3428 257.031 51.3092 257.213L38.9799 317.005C38.8632 317.546 38.5464 318.033 38.0836 318.383C37.6208 318.734 37.0404 318.926 36.4412 318.927Z" fill="#2F2E41"/>
<path d="M52.7822 157.933C60.5818 157.933 66.9045 152.115 66.9045 144.937C66.9045 137.76 60.5818 131.941 52.7822 131.941C44.9827 131.941 38.6599 137.76 38.6599 144.937C38.6599 152.115 44.9827 157.933 52.7822 157.933Z" fill="#A0616A"/>
<path d="M48.0468 242.471C41.3159 242.471 34.4022 240.843 28.6709 236.029C28.3659 235.775 28.1304 235.458 27.9836 235.104C27.8368 234.75 27.7828 234.369 27.826 233.992C28.4394 228.92 31.4151 202.73 29.7393 185.236C29.4123 181.968 29.915 178.675 31.2078 175.617C32.5006 172.559 34.548 169.819 37.1886 167.613C39.783 165.413 42.8975 163.797 46.2864 162.894C49.6753 161.991 53.2459 161.825 56.7165 162.41C56.8924 162.439 57.0682 162.469 57.2443 162.5C68.5506 164.514 76.4063 174.143 75.5174 184.899C74.2203 200.593 73.0576 221.822 74.8833 233.827C74.959 234.318 74.8658 234.819 74.6168 235.258C74.3678 235.698 73.9755 236.056 73.4948 236.28C69.3406 238.212 58.9326 242.471 48.0468 242.471Z" fill="#5297FF"/>
<path d="M66.4747 190.366C66.1434 190.163 65.8635 189.896 65.6541 189.585C65.4448 189.273 65.311 188.924 65.2618 188.56L63.5413 175.867C62.9951 174.061 63.2491 172.131 64.2475 170.497C65.2459 168.864 66.9073 167.662 68.8675 167.154C70.8276 166.647 72.9265 166.875 74.704 167.789C76.4815 168.704 77.7925 170.229 78.3496 172.031L84.0168 183.758C84.1785 184.092 84.26 184.455 84.2556 184.821C84.2512 185.188 84.1611 185.549 83.9914 185.88C83.8217 186.211 83.5764 186.505 83.2722 186.741C82.968 186.977 82.6121 187.151 82.2287 187.249L68.7525 190.7C68.3691 190.798 67.9671 190.819 67.574 190.762C67.1809 190.704 66.8059 190.569 66.4747 190.366Z" fill="#5297FF"/>
<path d="M47.8522 157.75C46.5155 157.773 45.1871 157.552 43.9438 157.099C43.3968 156.905 42.8289 156.746 42.2829 156.552C37.4607 154.837 34.2841 150.111 34.1704 145.355C34.0566 140.599 36.7331 135.982 40.7075 132.94C44.6819 129.898 49.8297 128.336 54.9844 127.975C60.5368 127.586 66.789 128.881 69.8917 133.137C70.7175 134.269 71.2951 135.644 70.8057 137.011C70.6592 137.424 70.3974 137.794 70.0466 138.084C68.661 139.219 67.2796 138.366 65.8671 138.29C63.9257 138.187 62.1819 139.633 61.5551 141.327C60.9284 143.021 61.2043 144.886 61.7103 146.614C62.0959 147.654 62.3389 148.734 62.4338 149.829C62.4747 150.379 62.3624 150.928 62.1078 151.426C61.8531 151.924 61.4644 152.354 60.9786 152.675C59.7654 153.35 58.1722 152.96 56.9583 152.286C55.7444 151.612 54.6955 150.675 53.3843 150.18C52.0731 149.684 50.3114 149.794 49.5483 150.893C49.3057 151.293 49.1416 151.729 49.0633 152.182C48.3791 155.05 48.5364 154.881 47.8522 157.75Z" fill="#2F2E41"/>
<path d="M110.207 336H0.95896C0.806464 336 0.660213 335.944 0.552382 335.845C0.444551 335.746 0.383972 335.611 0.383972 335.471C0.383972 335.33 0.444551 335.196 0.552382 335.097C0.660213 334.997 0.806464 334.942 0.95896 334.942H110.207C110.359 334.942 110.505 334.997 110.613 335.097C110.721 335.196 110.782 335.33 110.782 335.471C110.782 335.611 110.721 335.746 110.613 335.845C110.505 335.944 110.359 336 110.207 336Z" fill="#CCCCCC"/>
<path d="M389.849 226.802L311.618 267.184C309.356 268.349 306.685 268.64 304.19 267.994C301.695 267.348 299.581 265.818 298.31 263.74L262.586 205.13C261.321 203.049 261.004 200.591 261.706 198.295C262.408 195.999 264.071 194.053 266.329 192.884L344.561 152.502C346.823 151.338 349.494 151.047 351.989 151.692C354.483 152.338 356.598 153.868 357.868 155.947L393.592 214.556C394.858 216.638 395.174 219.096 394.472 221.392C393.77 223.687 392.108 225.633 389.849 226.802Z" fill="white"/>
<path d="M389.849 226.802L311.618 267.184C309.356 268.349 306.685 268.64 304.19 267.994C301.695 267.348 299.581 265.818 298.31 263.74L262.586 205.13C261.321 203.049 261.004 200.591 261.706 198.295C262.408 195.999 264.071 194.053 266.329 192.884L344.561 152.502C346.823 151.338 349.494 151.047 351.989 151.692C354.483 152.338 356.598 153.868 357.868 155.947L393.592 214.556C394.858 216.638 395.174 219.096 394.472 221.392C393.77 223.687 392.108 225.633 389.849 226.802ZM266.892 193.807C264.899 194.839 263.432 196.556 262.813 198.581C262.194 200.607 262.473 202.776 263.589 204.613L299.313 263.222C300.434 265.056 302.3 266.406 304.501 266.976C306.702 267.546 309.059 267.289 311.055 266.261L389.286 225.879C391.279 224.848 392.747 223.131 393.366 221.105C393.985 219.08 393.706 216.911 392.589 215.074L356.865 156.465C355.744 154.631 353.879 153.281 351.677 152.711C349.476 152.141 347.119 152.398 345.124 153.425L266.892 193.807Z" fill="#3F3D56"/>
<path d="M346.397 174.692L306.914 195.073C306.571 195.258 306.165 195.317 305.776 195.237C305.388 195.157 305.047 194.945 304.822 194.643C304.712 194.483 304.639 194.304 304.606 194.118C304.574 193.931 304.583 193.74 304.633 193.557C304.684 193.373 304.774 193.201 304.899 193.051C305.024 192.901 305.181 192.776 305.36 192.683L345.551 171.938C347.527 172.325 347.548 174.098 346.397 174.692Z" fill="#CCCCCC"/>
<path d="M350.281 181.066L310.799 201.446C310.456 201.632 310.049 201.69 309.661 201.611C309.272 201.531 308.932 201.318 308.707 201.016C308.597 200.856 308.523 200.678 308.491 200.491C308.458 200.304 308.468 200.113 308.518 199.93C308.568 199.747 308.659 199.575 308.784 199.424C308.908 199.274 309.065 199.149 309.244 199.057L349.435 178.311C351.412 178.698 351.433 180.471 350.281 181.066Z" fill="#CCCCCC"/>
<path d="M304.476 209.48L292.426 215.7C292.032 215.903 291.567 215.954 291.133 215.841C290.699 215.729 290.331 215.463 290.11 215.101L282.134 202.015C281.913 201.653 281.858 201.225 281.981 200.825C282.103 200.426 282.392 200.087 282.785 199.884L294.835 193.664C295.229 193.461 295.694 193.411 296.128 193.523C296.562 193.635 296.93 193.902 297.151 194.263L305.127 207.349C305.348 207.711 305.403 208.139 305.281 208.539C305.158 208.938 304.869 209.277 304.476 209.48Z" fill="#CCCCCC"/>
<path d="M358.12 194.174L297.863 225.278C297.52 225.464 297.113 225.523 296.725 225.443C296.337 225.363 295.996 225.15 295.771 224.848C295.661 224.688 295.588 224.51 295.555 224.323C295.523 224.136 295.532 223.945 295.582 223.762C295.632 223.579 295.723 223.407 295.848 223.257C295.973 223.107 296.129 222.981 296.309 222.889L357.275 191.419C359.251 191.806 359.272 193.58 358.12 194.174Z" fill="#CCCCCC"/>
<path d="M362.006 200.549L301.749 231.653C301.406 231.839 300.999 231.898 300.611 231.818C300.222 231.738 299.881 231.525 299.657 231.223C299.547 231.063 299.473 230.885 299.441 230.698C299.408 230.511 299.417 230.32 299.468 230.137C299.518 229.954 299.608 229.782 299.733 229.632C299.858 229.482 300.015 229.356 300.194 229.264L361.16 197.794C363.137 198.181 363.158 199.955 362.006 200.549Z" fill="#CCCCCC"/>
<path d="M365.889 206.92L305.632 238.024C305.289 238.21 304.882 238.269 304.494 238.189C304.106 238.109 303.765 237.896 303.54 237.594C303.43 237.434 303.357 237.256 303.324 237.069C303.292 236.882 303.301 236.691 303.351 236.508C303.401 236.325 303.492 236.153 303.617 236.003C303.742 235.852 303.898 235.727 304.078 235.635L365.044 204.165C367.02 204.552 367.041 206.326 365.889 206.92Z" fill="#CCCCCC"/>
<path d="M369.775 213.295L309.518 244.399C309.175 244.584 308.768 244.643 308.379 244.563C307.991 244.484 307.65 244.271 307.426 243.969C307.316 243.809 307.242 243.63 307.21 243.444C307.177 243.257 307.186 243.066 307.237 242.883C307.287 242.699 307.377 242.527 307.502 242.377C307.627 242.227 307.784 242.102 307.963 242.01L368.929 210.54C370.906 210.927 370.926 212.701 369.775 213.295Z" fill="#CCCCCC"/>
<path d="M373.658 219.666L313.401 250.77C313.058 250.956 312.651 251.015 312.263 250.935C311.874 250.855 311.534 250.642 311.309 250.34C311.199 250.18 311.126 250.002 311.093 249.815C311.061 249.628 311.07 249.437 311.12 249.254C311.17 249.071 311.261 248.899 311.386 248.749C311.511 248.598 311.667 248.473 311.847 248.381L372.813 216.911C374.789 217.298 374.81 219.072 373.658 219.666Z" fill="#CCCCCC"/>
<path d="M363.146 243.542C363.474 242.876 363.64 242.152 363.631 241.421C363.622 240.689 363.439 239.969 363.094 239.31C362.75 238.651 362.253 238.069 361.638 237.606C361.023 237.143 360.305 236.809 359.535 236.629L357.896 218.917L350.015 224.638L352.78 240.581C352.536 241.791 352.784 243.042 353.476 244.096C354.168 245.15 355.256 245.934 356.533 246.299C357.811 246.664 359.19 246.585 360.409 246.077C361.628 245.569 362.602 244.667 363.146 243.542Z" fill="#FFB8B8"/>
<path d="M358.045 234.774L351.5 235.492C351.167 235.529 350.83 235.502 350.51 235.413C350.189 235.324 349.892 235.175 349.637 234.975C349.382 234.775 349.174 234.53 349.027 234.253C348.88 233.976 348.796 233.674 348.782 233.366L347.827 213.046L335.421 181.856C334.923 180.888 334.697 179.821 334.761 178.753C334.825 177.684 335.179 176.646 335.789 175.735C336.093 175.295 336.441 174.882 336.829 174.501C337.593 173.744 338.544 173.168 339.601 172.823C340.658 172.477 341.791 172.372 342.902 172.516C344.047 172.656 345.139 173.046 346.087 173.652C347.035 174.259 347.813 175.065 348.355 176.003L356.446 191.605C359.83 198.131 361.428 205.32 361.1 212.545L360.188 232.646C360.164 233.172 359.939 233.673 359.553 234.062C359.167 234.45 358.645 234.701 358.077 234.77L358.045 234.774Z" fill="#5297FF"/>
<path d="M381.29 322.594L375.221 325.045L362.06 304.672L371.016 301.054L381.29 322.594Z" fill="#FFB8B8"/>
<path d="M385.419 327.382L365.853 335.286L365.744 335.058C365.305 334.138 365.067 333.147 365.044 332.142C365.021 331.137 365.214 330.137 365.611 329.201C366.007 328.264 366.601 327.409 367.357 326.684C368.113 325.958 369.017 325.377 370.017 324.973L381.968 320.145L385.419 327.382Z" fill="#2F2E41"/>
<path d="M299.82 329.374H293.193L290.04 305.85L299.821 305.851L299.82 329.374Z" fill="#FFB8B8"/>
<path d="M301.51 335.286L280.141 335.285V335.036C280.141 334.031 280.356 333.036 280.774 332.107C281.192 331.179 281.805 330.335 282.577 329.624C283.35 328.913 284.267 328.35 285.276 327.965C286.285 327.58 287.366 327.382 288.459 327.382L301.51 327.383L301.51 335.286Z" fill="#2F2E41"/>
<path d="M364.343 321.332L327.425 245.516C327.358 245.374 327.245 245.254 327.101 245.174C326.958 245.094 326.79 245.056 326.623 245.067C326.455 245.078 326.295 245.137 326.165 245.235C326.035 245.333 325.942 245.466 325.897 245.616L303.403 318.845C303.255 319.357 302.913 319.804 302.438 320.105C301.963 320.406 301.387 320.541 300.814 320.485L288.529 319.355C287.896 319.294 287.314 319.008 286.906 318.558C286.499 318.108 286.297 317.53 286.345 316.946C290.253 272.222 296.412 230.011 314.866 202.378L314.964 202.231L342.876 207.268L380.14 316.467C380.324 317.03 380.261 317.636 379.966 318.157C379.67 318.677 379.165 319.071 378.558 319.253L367.321 322.577C366.745 322.749 366.12 322.717 365.569 322.486C365.018 322.256 364.58 321.844 364.343 321.332Z" fill="#2F2E41"/>
<path d="M328.455 163.542C335.787 163.542 341.732 158.071 341.732 151.323C341.732 144.576 335.787 139.105 328.455 139.105C321.122 139.105 315.178 144.576 315.178 151.323C315.178 158.071 321.122 163.542 328.455 163.542Z" fill="#FFB8B8"/>
<path d="M313.15 204.494L312.981 204.462L312.941 204.307C311.152 197.357 311.109 189.771 312.814 181.763C313.679 177.67 316.085 173.989 319.61 171.368C323.134 168.748 327.55 167.355 332.081 167.437C336.996 167.529 341.688 169.346 345.196 172.516C348.703 175.686 350.762 179.97 350.951 184.491C351.52 198.266 345.403 210.208 345.341 210.327L345.25 210.501L313.15 204.494Z" fill="#5297FF"/>
<path d="M277.559 227.738C278.345 227.631 279.096 227.366 279.759 226.963C280.422 226.561 280.981 226.029 281.397 225.405C281.812 224.782 282.074 224.082 282.164 223.356C282.255 222.629 282.17 221.893 281.918 221.2L297.21 210.339L287.715 207.341L274.649 218.114C273.411 218.582 272.403 219.451 271.815 220.557C271.227 221.663 271.101 222.929 271.459 224.115C271.818 225.301 272.637 226.325 273.761 226.993C274.885 227.661 276.236 227.926 277.559 227.738Z" fill="#FFB8B8"/>
<path d="M285.911 219.547C285.413 219.818 284.827 219.916 284.257 219.823C283.687 219.731 283.173 219.454 282.805 219.043L278.604 214.368C278.391 214.131 278.233 213.855 278.141 213.559C278.048 213.263 278.023 212.952 278.068 212.647C278.112 212.341 278.224 212.048 278.397 211.784C278.57 211.52 278.801 211.292 279.074 211.114L297.119 199.371L318.892 172.88C319.506 171.971 320.358 171.218 321.369 170.689C322.381 170.159 323.52 169.871 324.683 169.85C325.249 169.847 325.815 169.892 326.373 169.986C327.478 170.166 328.519 170.59 329.407 171.221C330.296 171.852 331.005 172.671 331.475 173.609C331.967 174.571 332.202 175.626 332.162 176.688C332.122 177.75 331.807 178.788 331.243 179.715L315.122 203.742L315.086 203.794L285.911 219.547Z" fill="#5297FF"/>
<path d="M330.829 150.565C329.85 149.084 327.691 148.665 325.816 148.834C323.941 149.003 322.118 149.61 320.235 149.596C315.004 149.559 310.966 143.692 313.166 139.325C314.969 135.743 319.473 134.17 323.548 132.936C332.091 130.348 341.905 127.861 349.657 132.057C352.128 133.434 354.154 135.393 355.527 137.732C356.899 140.07 357.569 142.704 357.465 145.36C357.291 148.663 355.917 152.055 357.079 155.184C358.42 158.793 362.672 160.73 366.69 161.667C373.734 163.309 381.161 163.044 388.249 164.517C395.337 165.99 402.6 169.901 404.511 176.353C405.766 180.591 404.456 185.153 402.288 189.065C400.075 193.057 397 196.591 393.252 199.452C389.503 202.312 385.159 204.438 380.486 205.699C375.814 206.96 370.91 207.33 366.077 206.787C361.243 206.243 356.581 204.797 352.376 202.538C343.807 197.933 337.621 190.151 333.932 181.674C331.841 176.729 330.369 171.581 329.544 166.329C328.718 161.413 329.419 156.445 330.915 151.665C330.986 151.487 331.015 151.296 331 151.107C330.985 150.917 330.927 150.733 330.829 150.565Z" fill="#2F2E41"/>
<path d="M378.726 336H269.478C269.326 336 269.18 335.944 269.072 335.845C268.964 335.746 268.904 335.611 268.904 335.471C268.904 335.33 268.964 335.196 269.072 335.097C269.18 334.997 269.326 334.942 269.478 334.942H378.726C378.879 334.942 379.025 334.997 379.133 335.097C379.241 335.196 379.301 335.33 379.301 335.471C379.301 335.611 379.241 335.746 379.133 335.845C379.025 335.944 378.879 336 378.726 336Z" fill="#CCCCCC"/>
</g>
<defs>
<clipPath id="clip0_186_744">
<rect width="405" height="336" fill="white"/>
</clipPath>
</defs>
</svg>
