<svg width="500" height="394" viewBox="0 0 500 394" fill="none" xmlns="http://www.w3.org/2000/svg">
<g clip-path="url(#clip0_28_343)">
<path d="M246.066 89.4358H243.998V32.7869C243.998 24.0913 240.544 15.7518 234.395 9.60308C228.246 3.45434 219.907 1.08428e-05 211.211 2.08086e-10H91.1925C86.8869 -1.5339e-05 82.6234 0.848028 78.6455 2.49571C74.6676 4.14339 71.0532 6.55844 68.0086 9.60297C64.9641 12.6475 62.549 16.2619 60.9013 20.2398C59.2536 24.2176 58.4055 28.4811 58.4055 32.7868V343.567C58.4055 347.873 59.2536 352.137 60.9012 356.114C62.5489 360.092 64.964 363.707 68.0085 366.751C71.0531 369.796 74.6675 372.211 78.6453 373.859C82.6232 375.506 86.8867 376.354 91.1923 376.354H211.211C215.516 376.354 219.78 375.506 223.758 373.859C227.736 372.211 231.35 369.796 234.395 366.751C237.439 363.707 239.854 360.092 241.502 356.115C243.15 352.137 243.998 347.873 243.998 343.568V129.76H246.066V89.4358Z" fill="#3F3D56"/>
<path d="M212.287 9.30547H196.621C197.341 11.0718 197.616 12.9882 197.421 14.8858C197.227 16.7835 196.568 18.6041 195.504 20.1874C194.44 21.7707 193.003 23.068 191.32 23.9651C189.636 24.8621 187.758 25.3314 185.85 25.3315H117.093C115.186 25.3314 113.307 24.8621 111.624 23.9651C109.94 23.068 108.503 21.7707 107.439 20.1874C106.375 18.6041 105.717 16.7835 105.522 14.8858C105.327 12.9882 105.602 11.0718 106.323 9.30547H91.6905C85.1967 9.30546 78.9689 11.8851 74.377 16.4769C69.7852 21.0687 67.2056 27.2965 67.2056 33.7903V344.115C67.2056 347.33 67.8389 350.514 69.0694 353.485C70.2998 356.455 72.1034 359.155 74.377 361.428C76.6506 363.702 79.3498 365.505 82.3205 366.736C85.2911 367.966 88.475 368.6 91.6904 368.6H212.287C218.781 368.6 225.009 366.02 229.6 361.428C234.192 356.837 236.772 350.609 236.772 344.115V33.7903C236.772 30.5749 236.139 27.391 234.908 24.4204C233.678 21.4497 231.874 18.7505 229.6 16.4769C227.327 14.2033 224.628 12.3997 221.657 11.1693C218.686 9.93878 215.502 9.30546 212.287 9.30547ZM209.655 153.267C209.65 154.948 208.98 156.558 207.792 157.746C206.604 158.934 204.993 159.604 203.313 159.609H172.659C170.979 159.604 169.369 158.934 168.18 157.746C166.992 156.558 166.322 154.948 166.317 153.267V151.682C166.322 150.001 166.992 148.391 168.18 147.202C169.369 146.014 170.979 145.344 172.659 145.339H203.313C204.993 145.344 206.604 146.014 207.792 147.202C208.98 148.391 209.65 150.001 209.655 151.682V153.267ZM213.09 125.256C213.085 126.937 212.416 128.547 211.227 129.735C210.039 130.924 208.429 131.593 206.748 131.598H96.8186C95.1381 131.593 93.5278 130.924 92.3395 129.735C91.1512 128.547 90.4815 126.937 90.4766 125.256V123.671C90.4815 121.99 91.1512 120.38 92.3395 119.192C93.5278 118.003 95.1381 117.333 96.8186 117.329H206.748C208.429 117.333 210.039 118.003 211.227 119.192C212.416 120.38 213.085 121.99 213.09 123.671V125.256ZM213.09 97.2453C213.085 98.9258 212.416 100.536 211.227 101.724C210.039 102.913 208.429 103.582 206.748 103.587H96.8186C95.1381 103.582 93.5278 102.913 92.3395 101.724C91.1512 100.536 90.4815 98.9258 90.4766 97.2453V95.6598C90.4815 93.9793 91.1512 92.369 92.3395 91.1807C93.5278 89.9924 95.1381 89.3226 96.8186 89.3177H206.748C208.429 89.3226 210.039 89.9924 211.227 91.1807C212.416 92.369 213.085 93.9793 213.09 95.6598V97.2453ZM213.09 69.2344C213.085 70.9149 212.416 72.5252 211.227 73.7135C210.039 74.9018 208.429 75.5716 206.748 75.5765H96.8186C95.1381 75.5716 93.5278 74.9018 92.3395 73.7135C91.1512 72.5252 90.4815 70.9149 90.4766 69.2344V67.6489C90.4815 65.9684 91.1512 64.3581 92.3395 63.1698C93.5278 61.9815 95.1381 61.3117 96.8186 61.3068H206.748C208.429 61.3117 210.039 61.9815 211.227 63.1698C212.416 64.3581 213.085 65.9684 213.09 67.6489V69.2344Z" fill="white"/>
<path d="M99.1969 128.427C101.24 128.427 102.896 126.771 102.896 124.728C102.896 122.684 101.24 121.028 99.1969 121.028C97.1537 121.028 95.4973 122.684 95.4973 124.728C95.4973 126.771 97.1537 128.427 99.1969 128.427Z" fill="white"/>
<path d="M111.353 128.427C113.396 128.427 115.052 126.771 115.052 124.728C115.052 122.684 113.396 121.028 111.353 121.028C109.309 121.028 107.653 122.684 107.653 124.728C107.653 126.771 109.309 128.427 111.353 128.427Z" fill="white"/>
<path d="M123.508 128.427C125.551 128.427 127.208 126.771 127.208 124.728C127.208 122.684 125.551 121.028 123.508 121.028C121.465 121.028 119.809 122.684 119.809 124.728C119.809 126.771 121.465 128.427 123.508 128.427Z" fill="white"/>
<path d="M135.664 128.427C137.707 128.427 139.363 126.771 139.363 124.728C139.363 122.684 137.707 121.028 135.664 121.028C133.621 121.028 131.964 122.684 131.964 124.728C131.964 126.771 133.621 128.427 135.664 128.427Z" fill="white"/>
<path d="M175.302 156.438C177.345 156.438 179.002 154.782 179.002 152.739C179.002 150.695 177.345 149.039 175.302 149.039C173.259 149.039 171.602 150.695 171.602 152.739C171.602 154.782 173.259 156.438 175.302 156.438Z" fill="white"/>
<path d="M187.458 156.438C189.501 156.438 191.157 154.782 191.157 152.739C191.157 150.695 189.501 149.039 187.458 149.039C185.414 149.039 183.758 150.695 183.758 152.739C183.758 154.782 185.414 156.438 187.458 156.438Z" fill="white"/>
<path d="M199.613 156.438C201.656 156.438 203.313 154.782 203.313 152.739C203.313 150.695 201.656 149.039 199.613 149.039C197.57 149.039 195.914 150.695 195.914 152.739C195.914 154.782 197.57 156.438 199.613 156.438Z" fill="white"/>
<path d="M213.941 200.673H88.5691C85.6237 200.673 82.7989 201.843 80.7162 203.926C78.6334 206.008 77.4634 208.833 77.4634 211.779V272.862C77.4634 275.808 78.6334 278.632 80.7162 280.715C82.7989 282.798 85.6237 283.968 88.5691 283.968H213.941C216.886 283.968 219.711 282.798 221.794 280.715C223.876 278.632 225.046 275.808 225.046 272.862V211.779C225.046 208.833 223.876 206.009 221.794 203.926C219.711 201.843 216.886 200.673 213.941 200.673ZM85.4672 208.249C85.7148 208.204 91.5854 207.205 96.4465 210.13C101.307 213.055 103.175 218.71 103.252 218.949L103.449 219.559L102.818 219.671C101.918 219.811 101.008 219.878 100.097 219.87C97.2077 219.926 94.3562 219.207 91.8381 217.789C86.9772 214.865 85.1099 209.21 85.0329 208.97L84.8364 208.361L85.4672 208.249ZM112.682 264.961H90.321C88.6901 264.961 87.126 264.313 85.9728 263.16C84.8196 262.007 84.1717 260.443 84.1717 258.812C84.1717 257.181 84.8196 255.617 85.9728 254.464C87.126 253.31 88.6901 252.662 90.321 252.662H112.682C114.313 252.662 115.877 253.31 117.03 254.464C118.183 255.617 118.831 257.181 118.831 258.812C118.831 260.443 118.183 262.007 117.03 263.16C115.877 264.313 114.313 264.961 112.682 264.961ZM214.425 263.843C214.42 265.621 213.711 267.324 212.454 268.581C211.197 269.838 209.494 270.546 207.717 270.551H190.946C189.168 270.546 187.465 269.838 186.208 268.581C184.951 267.324 184.243 265.621 184.237 263.843V253.781C184.243 252.003 184.951 250.3 186.208 249.043C187.465 247.786 189.168 247.077 190.946 247.072H207.717C209.494 247.077 211.197 247.786 212.454 249.043C213.711 250.3 214.42 252.003 214.425 253.781L214.425 263.843Z" fill="#5297FF"/>
<path d="M196.353 261.769H189.61C189.129 261.769 188.667 261.961 188.326 262.301C187.986 262.642 187.795 263.103 187.795 263.585C187.795 264.066 187.986 264.528 188.326 264.869C188.667 265.209 189.129 265.4 189.61 265.4H196.353C196.835 265.4 197.296 265.209 197.637 264.869C197.977 264.528 198.169 264.066 198.169 263.585C198.169 263.103 197.977 262.642 197.637 262.301C197.296 261.961 196.835 261.769 196.353 261.769Z" fill="#3F3D56"/>
<path d="M208.802 261.769H202.059C201.577 261.769 201.115 261.961 200.775 262.301C200.435 262.642 200.243 263.103 200.243 263.585C200.243 264.066 200.435 264.528 200.775 264.869C201.115 265.209 201.577 265.4 202.059 265.4H208.802C209.283 265.4 209.745 265.209 210.086 264.869C210.426 264.528 210.617 264.066 210.617 263.585C210.617 263.103 210.426 262.642 210.086 262.301C209.745 261.961 209.283 261.769 208.802 261.769Z" fill="#3F3D56"/>
<path d="M196.352 256.645H189.609C189.127 256.645 188.666 256.836 188.325 257.176C187.985 257.517 187.793 257.979 187.793 258.46C187.793 258.942 187.985 259.403 188.325 259.744C188.666 260.084 189.127 260.276 189.609 260.276H196.352C196.833 260.276 197.295 260.084 197.636 259.744C197.976 259.403 198.167 258.942 198.167 258.46C198.167 257.979 197.976 257.517 197.636 257.176C197.295 256.836 196.833 256.645 196.352 256.645Z" fill="#3F3D56"/>
<path d="M208.801 256.645H202.058C201.576 256.645 201.114 256.836 200.774 257.176C200.433 257.517 200.242 257.979 200.242 258.46C200.242 258.942 200.433 259.403 200.774 259.744C201.114 260.084 201.576 260.276 202.058 260.276H208.801C209.282 260.276 209.744 260.084 210.084 259.744C210.425 259.403 210.616 258.942 210.616 258.46C210.616 257.979 210.425 257.517 210.084 257.176C209.744 256.836 209.282 256.645 208.801 256.645Z" fill="#3F3D56"/>
<path d="M196.352 251.624H189.609C189.127 251.624 188.666 251.815 188.325 252.155C187.985 252.496 187.793 252.958 187.793 253.439C187.793 253.921 187.985 254.382 188.325 254.723C188.666 255.063 189.127 255.255 189.609 255.255H196.352C196.833 255.255 197.295 255.063 197.636 254.723C197.976 254.382 198.167 253.921 198.167 253.439C198.167 252.958 197.976 252.496 197.636 252.155C197.295 251.815 196.833 251.624 196.352 251.624Z" fill="#3F3D56"/>
<path d="M208.801 251.624H202.058C201.576 251.624 201.114 251.815 200.774 252.155C200.433 252.496 200.242 252.958 200.242 253.439C200.242 253.921 200.433 254.382 200.774 254.723C201.114 255.063 201.576 255.255 202.058 255.255H208.801C209.282 255.255 209.744 255.063 210.084 254.723C210.425 254.382 210.616 253.921 210.616 253.439C210.616 252.958 210.425 252.496 210.084 252.155C209.744 251.815 209.282 251.624 208.801 251.624Z" fill="#3F3D56"/>
<path d="M300.775 223.683H284.422V240.036H300.775V223.683Z" fill="#E6E6E6"/>
<path d="M265.149 233.612H292.014V260.477H265.149V233.612ZM290.846 234.78H266.317V259.309H290.846V234.78Z" fill="#3F3D56"/>
<path d="M16.3528 88.7724H0V105.125H16.3528V88.7724Z" fill="#E6E6E6"/>
<path d="M35.6258 95.1967H8.7605V68.3314H35.6258V95.1967ZM9.92856 94.0286H34.4578V69.4994H9.92856V94.0286Z" fill="#3F3D56"/>
<path d="M381.416 386.287H374.256L370.85 358.669H381.417L381.416 386.287Z" fill="#FFB8B8"/>
<path d="M369.141 384.241H382.95V392.935H360.447C360.447 390.629 361.363 388.418 362.993 386.787C364.624 385.157 366.835 384.241 369.141 384.241Z" fill="#2F2E41"/>
<path d="M417.042 386.287H409.881L406.475 358.669H417.043L417.042 386.287Z" fill="#FFB8B8"/>
<path d="M404.767 384.241H418.576V392.935H396.073C396.073 390.629 396.989 388.418 398.619 386.787C400.25 385.157 402.461 384.241 404.767 384.241Z" fill="#2F2E41"/>
<path d="M345.498 287.519C344.982 286.76 344.64 285.898 344.494 284.992C344.349 284.087 344.403 283.16 344.654 282.278C344.906 281.396 345.347 280.579 345.948 279.886C346.549 279.193 347.294 278.64 348.132 278.267L372.472 211.181L384.448 217.717L356.658 281.826C357.192 283.275 357.177 284.87 356.615 286.308C356.052 287.746 354.982 288.928 353.606 289.63C352.23 290.332 350.645 290.504 349.151 290.115C347.656 289.726 346.356 288.803 345.498 287.519Z" fill="#FFB8B8"/>
<path d="M413.384 300.125C412.589 299.669 411.903 299.044 411.375 298.294C410.847 297.544 410.489 296.687 410.328 295.784C410.167 294.881 410.206 293.954 410.442 293.067C410.678 292.181 411.106 291.357 411.695 290.654L404.154 219.689L417.784 220.312L420.918 290.115C422.034 291.183 422.719 292.623 422.844 294.162C422.97 295.701 422.526 297.233 421.597 298.466C420.669 299.7 419.32 300.551 417.806 300.856C416.292 301.162 414.719 300.902 413.384 300.125Z" fill="#FFB8B8"/>
<path d="M391.64 198.755C399.563 198.755 405.985 192.333 405.985 184.411C405.985 176.489 399.563 170.066 391.64 170.066C383.718 170.066 377.296 176.489 377.296 184.411C377.296 192.333 383.718 198.755 391.64 198.755Z" fill="#FFB8B8"/>
<path d="M413.293 283.985H370.047L370.099 283.649C370.177 283.146 377.806 233.166 372.179 216.815C371.615 215.208 371.664 213.449 372.319 211.877C372.973 210.304 374.186 209.03 375.724 208.298C383.767 204.51 399.207 199.846 412.238 211.165C414.155 212.858 415.653 214.974 416.611 217.345C417.57 219.717 417.964 222.279 417.762 224.829L413.293 283.985Z" fill="#CCCCCC"/>
<path d="M378.353 240.552L358.883 236.602L368.01 214.976C368.556 212.881 369.91 211.089 371.776 209.991C373.642 208.894 375.867 208.582 377.963 209.123C380.059 209.664 381.855 211.014 382.957 212.878C384.059 214.741 384.376 216.965 383.84 219.063L378.353 240.552Z" fill="#CCCCCC"/>
<path d="M403.289 247.886L402.118 221.055C401.231 216.011 404.118 211.243 408.559 210.464C413 209.687 417.338 213.186 418.229 218.267L422.629 243.338L403.289 247.886Z" fill="#CCCCCC"/>
<path d="M411.854 280.773C418.812 307.275 419.571 340.969 417.694 377.722L408.35 376.554L391.413 306.471L382.068 377.722L371.556 377.138C368.415 338.575 365.357 305.469 370.388 283.693L411.854 280.773Z" fill="#2F2E41"/>
<path d="M401.092 195.497C398.416 198.347 393.446 196.817 393.098 192.923C393.07 192.62 393.072 192.316 393.104 192.014C393.284 190.289 394.28 188.723 394.041 186.902C393.987 186.448 393.819 186.016 393.551 185.647C391.418 182.791 386.413 186.924 384.4 184.339C383.166 182.754 384.617 180.258 383.67 178.487C382.42 176.148 378.718 177.302 376.396 176.021C373.813 174.597 373.968 170.634 375.668 168.223C377.742 165.283 381.377 163.715 384.968 163.488C388.558 163.262 392.124 164.233 395.476 165.539C399.284 167.023 403.061 169.075 405.405 172.423C408.255 176.496 408.529 181.971 407.104 186.733C406.237 189.63 403.277 193.169 401.092 195.497Z" fill="#2F2E41"/>
<path d="M499.416 393.635H276.901C276.746 393.635 276.597 393.574 276.488 393.464C276.378 393.355 276.317 393.206 276.317 393.051C276.317 392.897 276.378 392.748 276.488 392.638C276.597 392.529 276.746 392.467 276.901 392.467H499.416C499.571 392.467 499.719 392.529 499.829 392.638C499.938 392.748 500 392.897 500 393.051C500 393.206 499.938 393.355 499.829 393.464C499.719 393.574 499.571 393.635 499.416 393.635Z" fill="#3F3D56"/>
</g>
<defs>
<clipPath id="clip0_28_343">
<rect width="500" height="393.635" fill="white"/>
</clipPath>
</defs>
</svg>
