<svg width="48" height="43" viewBox="0 0 48 43" fill="none" xmlns="http://www.w3.org/2000/svg">
<path d="M21.5479 3.57495L35.8398 7.65044C36.2384 7.76402 36.5868 7.99092 36.8341 8.29802C37.0814 8.60512 37.2147 8.97634 37.2146 9.35749V12.5124H41.1312C41.6506 12.5124 42.1487 12.7008 42.516 13.036C42.8832 13.3712 43.0896 13.8259 43.0896 14.2999V17.8749H17.6312V14.2999C17.6312 13.8259 17.8375 13.3712 18.2048 13.036C18.5721 12.7008 19.0702 12.5124 19.5896 12.5124H33.2979V10.6713L21.5479 7.31796L9.79789 10.6713V23.9059C9.79761 25.0003 10.0725 26.0801 10.6015 27.0622C11.1305 28.0442 11.8994 28.9024 12.849 29.5705L13.2191 29.8136L21.5479 34.9991L28.9543 30.3874H19.5896C19.0702 30.3874 18.5721 30.199 18.2048 29.8638C17.8375 29.5286 17.6312 29.0739 17.6312 28.5999V21.4499H43.0896V28.5999C43.0896 29.0739 42.8832 29.5286 42.516 29.8638C42.1487 30.199 41.6506 30.3874 41.1312 30.3874L34.8254 30.3892C34.0675 31.3008 33.1471 32.1051 32.0837 32.7665L21.5479 39.3248L11.0121 32.7683C9.43075 31.7842 8.13674 30.4624 7.24254 28.9179C6.34834 27.3734 5.88103 25.6528 5.88123 23.9059V9.35749C5.88146 8.97665 6.01495 8.60583 6.26224 8.29909C6.50953 7.99235 6.85769 7.76571 7.25598 7.65222L21.5479 3.57495Z" fill="#5297FF"/>
</svg>
