<svg width="37" height="33" viewBox="0 0 37 33" fill="none" xmlns="http://www.w3.org/2000/svg">
<path d="M11.4091 9.1699C10.8524 4.85146 14.2133 1 18.5545 1C22.3297 1 25.4809 3.97744 25.75 7.75855V8.30173C25.75 12.2935 22.524 15.5317 18.537 15.5516L18.0676 15.5158C14.6363 15.2535 11.8501 12.5911 11.4091 9.1699Z" stroke="white" stroke-width="2"/>
<path d="M11.4091 9.1699C10.8524 4.85146 14.2133 1 18.5545 1C22.3297 1 25.4809 3.97744 25.75 7.75855V8.30173C25.75 12.2935 22.524 15.5317 18.537 15.5516L18.0676 15.5158C14.6363 15.2535 11.8501 12.5911 11.4091 9.1699Z" stroke="white" stroke-opacity="0.2" stroke-width="2"/>
<path d="M13.3438 19.3104L18.5 23.1725L24.1719 19.3104" stroke="white" stroke-width="2"/>
<path d="M14.375 14.8965L13.2095 19.3892H12.1171C6.75565 19.3892 2.34819 23.6173 2.12568 28.9741L2 32H35L34.7143 28.5613C34.2837 23.3773 29.9505 19.3892 24.7487 19.3892H24L22.625 14.8965" stroke="white" stroke-width="2"/>
<path d="M24.6875 27.5862V24.2758H28.8125V27.5862L26.75 29.2413L24.6875 27.5862Z" stroke="white" stroke-width="2"/>
</svg>
