<svg width="35" height="38" viewBox="0 0 35 38" fill="none" xmlns="http://www.w3.org/2000/svg">
<path d="M2.96973 4.8728V14.4487" stroke="white" stroke-width="2"/>
<path d="M2 5.09376L18.0494 2L34 5.09376L18.0494 8.51163L2 5.09376Z" stroke="white" stroke-width="2"/>
<path d="M18.1863 8.68017L25.6114 7.27227L25.7782 14.9273C25.8744 19.3442 22.3202 22.9768 17.9022 22.9768C13.5514 22.9768 10.0244 19.4497 10.0244 15.0989V7.26745L17.8216 8.68162L18.0041 8.71472L18.1863 8.68017Z" stroke="white" stroke-width="2"/>
<path d="M18.1863 8.68017L25.6114 7.27227L25.7782 14.9273C25.8744 19.3442 22.3202 22.9768 17.9022 22.9768C13.5514 22.9768 10.0244 19.4497 10.0244 15.0989V7.26745L17.8216 8.68162L18.0041 8.71472L18.1863 8.68017Z" stroke="white" stroke-opacity="0.2" stroke-width="2"/>
<path d="M9.80493 10.1395V10.1395C14.5433 12.9946 20.4286 13.1675 25.3265 10.5957L26.1952 10.1395" stroke="white" stroke-width="2"/>
<path d="M12.6667 25.9877L17.5152 29.3393L22.8485 25.9877" stroke="white" stroke-width="2"/>
<path d="M13.8211 21.6785L12.5405 26.0561H12.0526C6.70459 26.0561 2.30317 30.2639 2.06272 35.6065L2 37H33.0303L32.8646 35.1596C32.4007 30.005 28.0804 26.0561 22.9049 26.0561H22.6869L21.3939 22.1573" stroke="white" stroke-width="2"/>
</svg>
